# xmcd
#
# Track frame offsets:
#	150
#	25548
#	51622
#	74845
#	100833
#	127865
#	144837
#	173032
#
# Disc length: 2504 seconds
#
# Revision: 1
# Processed by: cddbd v1.5.2PL0 Copyright (c) Steve Scherf et al.
# Submitted via: audiograbber 1.83.01
#
DISCID=6a09c608
DTITLE=Rodrigo Morcego - Cafe Preto Jornal Velho
DYEAR=2013
DGENRE=
TTITLE0=Irmao Blues
TTITLE1=Ladjane
TTITLE2=Carrego do Satanas
TTITLE3=Hey Mama
TTITLE4=Amores vem e vao
TTITLE5=Os punhos ao espinho
TTITLE6=Cancoes de ninar
TTITLE7=Outro lugar
EXTD=
EXTT0=
EXTT1=
EXTT2=
EXTT3=
EXTT4=
EXTT5=
EXTT6=
EXTT7=
PLAYORDER=
